<mxfile host="app.diagrams.net" agent="Mozilla/5.0 (Windows NT 10.0; Win64; x64; rv:128.0) Gecko/20100101 Firefox/128.0" version="24.7.16">
  <diagram name="Page-1" id="JAbip0iFwTqwoyu5ySwG">
    <mxGraphModel dx="3124" dy="2071" grid="0" gridSize="10" guides="1" tooltips="1" connect="1" arrows="1" fold="1" page="0" pageScale="1" pageWidth="850" pageHeight="1100" math="0" shadow="0">
      <root>
        <mxCell id="0" />
        <mxCell id="1" parent="0" />
        <mxCell id="NfyWjWNFqi-aIi9zMegt-54" value="Compte" style="swimlane;fontStyle=0;childLayout=stackLayout;horizontal=1;startSize=30;horizontalStack=0;resizeParent=1;resizeParentMax=0;resizeLast=0;collapsible=1;marginBottom=0;whiteSpace=wrap;html=1;" parent="1" vertex="1">
          <mxGeometry x="-416" y="-493" width="140" height="180" as="geometry" />
        </mxCell>
        <mxCell id="NfyWjWNFqi-aIi9zMegt-55" value="id" style="text;strokeColor=none;fillColor=none;align=left;verticalAlign=middle;spacingLeft=4;spacingRight=4;overflow=hidden;points=[[0,0.5],[1,0.5]];portConstraint=eastwest;rotatable=0;whiteSpace=wrap;html=1;fontStyle=4" parent="NfyWjWNFqi-aIi9zMegt-54" vertex="1">
          <mxGeometry y="30" width="140" height="30" as="geometry" />
        </mxCell>
        <mxCell id="NfyWjWNFqi-aIi9zMegt-57" value="email" style="text;strokeColor=none;fillColor=none;align=left;verticalAlign=middle;spacingLeft=4;spacingRight=4;overflow=hidden;points=[[0,0.5],[1,0.5]];portConstraint=eastwest;rotatable=0;whiteSpace=wrap;html=1;" parent="NfyWjWNFqi-aIi9zMegt-54" vertex="1">
          <mxGeometry y="60" width="140" height="30" as="geometry" />
        </mxCell>
        <mxCell id="NfyWjWNFqi-aIi9zMegt-59" value="mot_de_pase" style="text;strokeColor=none;fillColor=none;align=left;verticalAlign=middle;spacingLeft=4;spacingRight=4;overflow=hidden;points=[[0,0.5],[1,0.5]];portConstraint=eastwest;rotatable=0;whiteSpace=wrap;html=1;" parent="NfyWjWNFqi-aIi9zMegt-54" vertex="1">
          <mxGeometry y="90" width="140" height="30" as="geometry" />
        </mxCell>
        <mxCell id="NfyWjWNFqi-aIi9zMegt-56" value="nom" style="text;strokeColor=none;fillColor=none;align=left;verticalAlign=middle;spacingLeft=4;spacingRight=4;overflow=hidden;points=[[0,0.5],[1,0.5]];portConstraint=eastwest;rotatable=0;whiteSpace=wrap;html=1;" parent="NfyWjWNFqi-aIi9zMegt-54" vertex="1">
          <mxGeometry y="120" width="140" height="30" as="geometry" />
        </mxCell>
        <mxCell id="NfyWjWNFqi-aIi9zMegt-60" value="role" style="text;strokeColor=none;fillColor=none;align=left;verticalAlign=middle;spacingLeft=4;spacingRight=4;overflow=hidden;points=[[0,0.5],[1,0.5]];portConstraint=eastwest;rotatable=0;whiteSpace=wrap;html=1;" parent="NfyWjWNFqi-aIi9zMegt-54" vertex="1">
          <mxGeometry y="150" width="140" height="30" as="geometry" />
        </mxCell>
        <mxCell id="NfyWjWNFqi-aIi9zMegt-61" value="Employe" style="swimlane;fontStyle=0;childLayout=stackLayout;horizontal=1;startSize=30;horizontalStack=0;resizeParent=1;resizeParentMax=0;resizeLast=0;collapsible=1;marginBottom=0;whiteSpace=wrap;html=1;" parent="1" vertex="1">
          <mxGeometry x="-677" y="-112" width="140" height="90" as="geometry" />
        </mxCell>
        <mxCell id="NfyWjWNFqi-aIi9zMegt-65" value="id_employe" style="text;strokeColor=none;fillColor=none;align=left;verticalAlign=middle;spacingLeft=4;spacingRight=4;overflow=hidden;points=[[0,0.5],[1,0.5]];portConstraint=eastwest;rotatable=0;whiteSpace=wrap;html=1;fontStyle=4" parent="NfyWjWNFqi-aIi9zMegt-61" vertex="1">
          <mxGeometry y="30" width="140" height="30" as="geometry" />
        </mxCell>
        <mxCell id="NfyWjWNFqi-aIi9zMegt-154" value="prenom" style="text;strokeColor=none;fillColor=none;align=left;verticalAlign=middle;spacingLeft=4;spacingRight=4;overflow=hidden;points=[[0,0.5],[1,0.5]];portConstraint=eastwest;rotatable=0;whiteSpace=wrap;html=1;" parent="NfyWjWNFqi-aIi9zMegt-61" vertex="1">
          <mxGeometry y="60" width="140" height="30" as="geometry" />
        </mxCell>
        <mxCell id="NfyWjWNFqi-aIi9zMegt-68" value="" style="shape=or;whiteSpace=wrap;html=1;rotation=-90;" parent="1" vertex="1">
          <mxGeometry x="-376" y="-272" width="60" height="80" as="geometry" />
        </mxCell>
        <mxCell id="NfyWjWNFqi-aIi9zMegt-69" value="" style="endArrow=none;html=1;rounded=0;exitX=0.75;exitY=0;exitDx=0;exitDy=0;entryX=0;entryY=0.25;entryDx=0;entryDy=0;entryPerimeter=0;" parent="1" source="NfyWjWNFqi-aIi9zMegt-61" target="NfyWjWNFqi-aIi9zMegt-68" edge="1">
          <mxGeometry width="50" height="50" relative="1" as="geometry">
            <mxPoint x="-332" y="-82" as="sourcePoint" />
            <mxPoint x="-282" y="-132" as="targetPoint" />
          </mxGeometry>
        </mxCell>
        <mxCell id="NfyWjWNFqi-aIi9zMegt-70" value="Citoyen" style="swimlane;fontStyle=0;childLayout=stackLayout;horizontal=1;startSize=30;horizontalStack=0;resizeParent=1;resizeParentMax=0;resizeLast=0;collapsible=1;marginBottom=0;whiteSpace=wrap;html=1;" parent="1" vertex="1">
          <mxGeometry x="-497" y="-112" width="140" height="90" as="geometry" />
        </mxCell>
        <mxCell id="NfyWjWNFqi-aIi9zMegt-156" value="id_citoyen" style="text;strokeColor=none;fillColor=none;align=left;verticalAlign=middle;spacingLeft=4;spacingRight=4;overflow=hidden;points=[[0,0.5],[1,0.5]];portConstraint=eastwest;rotatable=0;whiteSpace=wrap;html=1;fontStyle=4" parent="NfyWjWNFqi-aIi9zMegt-70" vertex="1">
          <mxGeometry y="30" width="140" height="30" as="geometry" />
        </mxCell>
        <mxCell id="NfyWjWNFqi-aIi9zMegt-71" value="prenom" style="text;strokeColor=none;fillColor=none;align=left;verticalAlign=middle;spacingLeft=4;spacingRight=4;overflow=hidden;points=[[0,0.5],[1,0.5]];portConstraint=eastwest;rotatable=0;whiteSpace=wrap;html=1;" parent="NfyWjWNFqi-aIi9zMegt-70" vertex="1">
          <mxGeometry y="60" width="140" height="30" as="geometry" />
        </mxCell>
        <mxCell id="NfyWjWNFqi-aIi9zMegt-72" value="" style="endArrow=none;html=1;rounded=0;exitX=0.5;exitY=0;exitDx=0;exitDy=0;entryX=0;entryY=0.5;entryDx=0;entryDy=0;entryPerimeter=0;" parent="1" source="NfyWjWNFqi-aIi9zMegt-70" target="NfyWjWNFqi-aIi9zMegt-68" edge="1">
          <mxGeometry width="50" height="50" relative="1" as="geometry">
            <mxPoint x="-218" y="-449" as="sourcePoint" />
            <mxPoint x="-168" y="-499" as="targetPoint" />
          </mxGeometry>
        </mxCell>
        <mxCell id="NfyWjWNFqi-aIi9zMegt-73" value="Compagnie d eau" style="swimlane;fontStyle=0;childLayout=stackLayout;horizontal=1;startSize=30;horizontalStack=0;resizeParent=1;resizeParentMax=0;resizeLast=0;collapsible=1;marginBottom=0;whiteSpace=wrap;html=1;" parent="1" vertex="1">
          <mxGeometry x="-98" y="-237" width="140" height="90" as="geometry" />
        </mxCell>
        <mxCell id="NfyWjWNFqi-aIi9zMegt-160" value="id_compagnie_d_eau" style="text;strokeColor=none;fillColor=none;align=left;verticalAlign=middle;spacingLeft=4;spacingRight=4;overflow=hidden;points=[[0,0.5],[1,0.5]];portConstraint=eastwest;rotatable=0;whiteSpace=wrap;html=1;fontStyle=4" parent="NfyWjWNFqi-aIi9zMegt-73" vertex="1">
          <mxGeometry y="30" width="140" height="30" as="geometry" />
        </mxCell>
        <mxCell id="NfyWjWNFqi-aIi9zMegt-74" value="prenom" style="text;strokeColor=none;fillColor=none;align=left;verticalAlign=middle;spacingLeft=4;spacingRight=4;overflow=hidden;points=[[0,0.5],[1,0.5]];portConstraint=eastwest;rotatable=0;whiteSpace=wrap;html=1;" parent="NfyWjWNFqi-aIi9zMegt-73" vertex="1">
          <mxGeometry y="60" width="140" height="30" as="geometry" />
        </mxCell>
        <mxCell id="NfyWjWNFqi-aIi9zMegt-75" value="Technicien" style="swimlane;fontStyle=0;childLayout=stackLayout;horizontal=1;startSize=30;horizontalStack=0;resizeParent=1;resizeParentMax=0;resizeLast=0;collapsible=1;marginBottom=0;whiteSpace=wrap;html=1;" parent="1" vertex="1">
          <mxGeometry x="-317" y="-99" width="140" height="120" as="geometry" />
        </mxCell>
        <mxCell id="NfyWjWNFqi-aIi9zMegt-157" value="id_technicien" style="text;strokeColor=none;fillColor=none;align=left;verticalAlign=middle;spacingLeft=4;spacingRight=4;overflow=hidden;points=[[0,0.5],[1,0.5]];portConstraint=eastwest;rotatable=0;whiteSpace=wrap;html=1;fontStyle=4" parent="NfyWjWNFqi-aIi9zMegt-75" vertex="1">
          <mxGeometry y="30" width="140" height="30" as="geometry" />
        </mxCell>
        <mxCell id="NfyWjWNFqi-aIi9zMegt-76" value="prenom" style="text;strokeColor=none;fillColor=none;align=left;verticalAlign=middle;spacingLeft=4;spacingRight=4;overflow=hidden;points=[[0,0.5],[1,0.5]];portConstraint=eastwest;rotatable=0;whiteSpace=wrap;html=1;" parent="NfyWjWNFqi-aIi9zMegt-75" vertex="1">
          <mxGeometry y="60" width="140" height="30" as="geometry" />
        </mxCell>
        <mxCell id="NfyWjWNFqi-aIi9zMegt-77" value="poste" style="text;strokeColor=none;fillColor=none;align=left;verticalAlign=middle;spacingLeft=4;spacingRight=4;overflow=hidden;points=[[0,0.5],[1,0.5]];portConstraint=eastwest;rotatable=0;whiteSpace=wrap;html=1;" parent="NfyWjWNFqi-aIi9zMegt-75" vertex="1">
          <mxGeometry y="90" width="140" height="30" as="geometry" />
        </mxCell>
        <mxCell id="NfyWjWNFqi-aIi9zMegt-82" value="" style="endArrow=none;html=1;rounded=0;exitX=0;exitY=0.75;exitDx=0;exitDy=0;exitPerimeter=0;entryX=0;entryY=0.5;entryDx=0;entryDy=0;" parent="1" source="NfyWjWNFqi-aIi9zMegt-68" target="NfyWjWNFqi-aIi9zMegt-160" edge="1">
          <mxGeometry width="50" height="50" relative="1" as="geometry">
            <mxPoint x="-218" y="-309" as="sourcePoint" />
            <mxPoint x="-168" y="-359" as="targetPoint" />
          </mxGeometry>
        </mxCell>
        <mxCell id="NfyWjWNFqi-aIi9zMegt-83" value="" style="endArrow=none;html=1;rounded=0;exitX=0;exitY=0.75;exitDx=0;exitDy=0;exitPerimeter=0;entryX=0.5;entryY=0;entryDx=0;entryDy=0;" parent="1" source="NfyWjWNFqi-aIi9zMegt-68" target="NfyWjWNFqi-aIi9zMegt-75" edge="1">
          <mxGeometry width="50" height="50" relative="1" as="geometry">
            <mxPoint x="-218" y="-309" as="sourcePoint" />
            <mxPoint x="-168" y="-359" as="targetPoint" />
          </mxGeometry>
        </mxCell>
        <mxCell id="NfyWjWNFqi-aIi9zMegt-84" value="" style="endArrow=classic;html=1;rounded=0;exitX=0.75;exitY=0;exitDx=0;exitDy=0;entryX=0;entryY=1;entryDx=0;entryDy=0;endSize=0;" parent="1" source="NfyWjWNFqi-aIi9zMegt-102" target="NfyWjWNFqi-aIi9zMegt-73" edge="1">
          <mxGeometry relative="1" as="geometry">
            <mxPoint x="37" y="24" as="sourcePoint" />
            <mxPoint x="206" y="31.5" as="targetPoint" />
          </mxGeometry>
        </mxCell>
        <mxCell id="NfyWjWNFqi-aIi9zMegt-85" value="Travaille dans" style="edgeLabel;resizable=0;html=1;;align=center;verticalAlign=middle;" parent="NfyWjWNFqi-aIi9zMegt-84" connectable="0" vertex="1">
          <mxGeometry relative="1" as="geometry" />
        </mxCell>
        <mxCell id="NfyWjWNFqi-aIi9zMegt-86" value="1,1" style="edgeLabel;resizable=0;html=1;;align=left;verticalAlign=bottom;" parent="NfyWjWNFqi-aIi9zMegt-84" connectable="0" vertex="1">
          <mxGeometry x="-1" relative="1" as="geometry">
            <mxPoint x="-24" y="-7" as="offset" />
          </mxGeometry>
        </mxCell>
        <mxCell id="NfyWjWNFqi-aIi9zMegt-87" value="1,n" style="edgeLabel;resizable=0;html=1;;align=right;verticalAlign=bottom;" parent="NfyWjWNFqi-aIi9zMegt-84" connectable="0" vertex="1">
          <mxGeometry x="1" relative="1" as="geometry">
            <mxPoint x="-5" y="-5" as="offset" />
          </mxGeometry>
        </mxCell>
        <mxCell id="NfyWjWNFqi-aIi9zMegt-88" value="" style="endArrow=none;html=1;rounded=0;exitX=1;exitY=0.5;exitDx=0;exitDy=0;exitPerimeter=0;entryX=0.5;entryY=1;entryDx=0;entryDy=0;" parent="1" source="NfyWjWNFqi-aIi9zMegt-68" target="NfyWjWNFqi-aIi9zMegt-54" edge="1">
          <mxGeometry width="50" height="50" relative="1" as="geometry">
            <mxPoint x="-218" y="-315" as="sourcePoint" />
            <mxPoint x="-168" y="-365" as="targetPoint" />
          </mxGeometry>
        </mxCell>
        <mxCell id="NfyWjWNFqi-aIi9zMegt-89" value="Notification" style="swimlane;fontStyle=0;childLayout=stackLayout;horizontal=1;startSize=30;horizontalStack=0;resizeParent=1;resizeParentMax=0;resizeLast=0;collapsible=1;marginBottom=0;whiteSpace=wrap;html=1;" parent="1" vertex="1">
          <mxGeometry x="-118" y="-493" width="140" height="210" as="geometry" />
        </mxCell>
        <mxCell id="NfyWjWNFqi-aIi9zMegt-91" value="id" style="text;strokeColor=none;fillColor=none;align=left;verticalAlign=middle;spacingLeft=4;spacingRight=4;overflow=hidden;points=[[0,0.5],[1,0.5]];portConstraint=eastwest;rotatable=0;whiteSpace=wrap;html=1;fontStyle=4" parent="NfyWjWNFqi-aIi9zMegt-89" vertex="1">
          <mxGeometry y="30" width="140" height="30" as="geometry" />
        </mxCell>
        <mxCell id="NfyWjWNFqi-aIi9zMegt-155" value="image_url" style="text;strokeColor=none;fillColor=none;align=left;verticalAlign=middle;spacingLeft=4;spacingRight=4;overflow=hidden;points=[[0,0.5],[1,0.5]];portConstraint=eastwest;rotatable=0;whiteSpace=wrap;html=1;" parent="NfyWjWNFqi-aIi9zMegt-89" vertex="1">
          <mxGeometry y="60" width="140" height="30" as="geometry" />
        </mxCell>
        <mxCell id="NfyWjWNFqi-aIi9zMegt-90" value="titre" style="text;strokeColor=none;fillColor=none;align=left;verticalAlign=middle;spacingLeft=4;spacingRight=4;overflow=hidden;points=[[0,0.5],[1,0.5]];portConstraint=eastwest;rotatable=0;whiteSpace=wrap;html=1;" parent="NfyWjWNFqi-aIi9zMegt-89" vertex="1">
          <mxGeometry y="90" width="140" height="30" as="geometry" />
        </mxCell>
        <mxCell id="NfyWjWNFqi-aIi9zMegt-92" value="message" style="text;strokeColor=none;fillColor=none;align=left;verticalAlign=middle;spacingLeft=4;spacingRight=4;overflow=hidden;points=[[0,0.5],[1,0.5]];portConstraint=eastwest;rotatable=0;whiteSpace=wrap;html=1;" parent="NfyWjWNFqi-aIi9zMegt-89" vertex="1">
          <mxGeometry y="120" width="140" height="30" as="geometry" />
        </mxCell>
        <mxCell id="NfyWjWNFqi-aIi9zMegt-93" value="ouvert" style="text;strokeColor=none;fillColor=none;align=left;verticalAlign=middle;spacingLeft=4;spacingRight=4;overflow=hidden;points=[[0,0.5],[1,0.5]];portConstraint=eastwest;rotatable=0;whiteSpace=wrap;html=1;" parent="NfyWjWNFqi-aIi9zMegt-89" vertex="1">
          <mxGeometry y="150" width="140" height="30" as="geometry" />
        </mxCell>
        <mxCell id="NfyWjWNFqi-aIi9zMegt-94" value="date_creation" style="text;strokeColor=none;fillColor=none;align=left;verticalAlign=middle;spacingLeft=4;spacingRight=4;overflow=hidden;points=[[0,0.5],[1,0.5]];portConstraint=eastwest;rotatable=0;whiteSpace=wrap;html=1;" parent="NfyWjWNFqi-aIi9zMegt-89" vertex="1">
          <mxGeometry y="180" width="140" height="30" as="geometry" />
        </mxCell>
        <mxCell id="NfyWjWNFqi-aIi9zMegt-95" value="" style="endArrow=classic;html=1;rounded=0;exitX=0;exitY=0.5;exitDx=0;exitDy=0;entryX=1;entryY=0.5;entryDx=0;entryDy=0;endSize=0;" parent="1" source="NfyWjWNFqi-aIi9zMegt-91" target="NfyWjWNFqi-aIi9zMegt-55" edge="1">
          <mxGeometry relative="1" as="geometry">
            <mxPoint x="-296" y="-552" as="sourcePoint" />
            <mxPoint x="-136" y="-552" as="targetPoint" />
          </mxGeometry>
        </mxCell>
        <mxCell id="NfyWjWNFqi-aIi9zMegt-96" value="&lt;div&gt;Concerne&lt;/div&gt;" style="edgeLabel;resizable=0;html=1;;align=center;verticalAlign=middle;" parent="NfyWjWNFqi-aIi9zMegt-95" connectable="0" vertex="1">
          <mxGeometry relative="1" as="geometry" />
        </mxCell>
        <mxCell id="NfyWjWNFqi-aIi9zMegt-97" value="1,1" style="edgeLabel;resizable=0;html=1;;align=left;verticalAlign=bottom;" parent="NfyWjWNFqi-aIi9zMegt-95" connectable="0" vertex="1">
          <mxGeometry x="-1" relative="1" as="geometry">
            <mxPoint x="-21" y="-5" as="offset" />
          </mxGeometry>
        </mxCell>
        <mxCell id="NfyWjWNFqi-aIi9zMegt-98" value="0,n" style="edgeLabel;resizable=0;html=1;;align=right;verticalAlign=bottom;" parent="NfyWjWNFqi-aIi9zMegt-95" connectable="0" vertex="1">
          <mxGeometry x="1" relative="1" as="geometry">
            <mxPoint x="25" y="-6" as="offset" />
          </mxGeometry>
        </mxCell>
        <mxCell id="NfyWjWNFqi-aIi9zMegt-100" value="Technicien municipal" style="swimlane;fontStyle=0;childLayout=stackLayout;horizontal=1;startSize=30;horizontalStack=0;resizeParent=1;resizeParentMax=0;resizeLast=0;collapsible=1;marginBottom=0;whiteSpace=wrap;html=1;" parent="1" vertex="1">
          <mxGeometry x="-407" y="167" width="140" height="90" as="geometry" />
        </mxCell>
        <mxCell id="NfyWjWNFqi-aIi9zMegt-158" value="id" style="text;strokeColor=none;fillColor=none;align=left;verticalAlign=middle;spacingLeft=4;spacingRight=4;overflow=hidden;points=[[0,0.5],[1,0.5]];portConstraint=eastwest;rotatable=0;whiteSpace=wrap;html=1;fontStyle=4" parent="NfyWjWNFqi-aIi9zMegt-100" vertex="1">
          <mxGeometry y="30" width="140" height="30" as="geometry" />
        </mxCell>
        <mxCell id="NfyWjWNFqi-aIi9zMegt-101" value="prenom" style="text;strokeColor=none;fillColor=none;align=left;verticalAlign=middle;spacingLeft=4;spacingRight=4;overflow=hidden;points=[[0,0.5],[1,0.5]];portConstraint=eastwest;rotatable=0;whiteSpace=wrap;html=1;" parent="NfyWjWNFqi-aIi9zMegt-100" vertex="1">
          <mxGeometry y="60" width="140" height="30" as="geometry" />
        </mxCell>
        <mxCell id="NfyWjWNFqi-aIi9zMegt-102" value="Agent compagnie d eau" style="swimlane;fontStyle=0;childLayout=stackLayout;horizontal=1;startSize=30;horizontalStack=0;resizeParent=1;resizeParentMax=0;resizeLast=0;collapsible=1;marginBottom=0;whiteSpace=wrap;html=1;" parent="1" vertex="1">
          <mxGeometry x="-209" y="167" width="140" height="90" as="geometry" />
        </mxCell>
        <mxCell id="NfyWjWNFqi-aIi9zMegt-159" value="id" style="text;strokeColor=none;fillColor=none;align=left;verticalAlign=middle;spacingLeft=4;spacingRight=4;overflow=hidden;points=[[0,0.5],[1,0.5]];portConstraint=eastwest;rotatable=0;whiteSpace=wrap;html=1;fontStyle=4" parent="NfyWjWNFqi-aIi9zMegt-102" vertex="1">
          <mxGeometry y="30" width="140" height="30" as="geometry" />
        </mxCell>
        <mxCell id="NfyWjWNFqi-aIi9zMegt-103" value="prenom" style="text;strokeColor=none;fillColor=none;align=left;verticalAlign=middle;spacingLeft=4;spacingRight=4;overflow=hidden;points=[[0,0.5],[1,0.5]];portConstraint=eastwest;rotatable=0;whiteSpace=wrap;html=1;" parent="NfyWjWNFqi-aIi9zMegt-102" vertex="1">
          <mxGeometry y="60" width="140" height="30" as="geometry" />
        </mxCell>
        <mxCell id="NfyWjWNFqi-aIi9zMegt-104" value="" style="shape=or;whiteSpace=wrap;html=1;rotation=-90;" parent="1" vertex="1">
          <mxGeometry x="-277" y="45" width="60" height="80" as="geometry" />
        </mxCell>
        <mxCell id="NfyWjWNFqi-aIi9zMegt-105" value="" style="endArrow=none;html=1;rounded=0;entryX=0;entryY=0.25;entryDx=0;entryDy=0;entryPerimeter=0;exitX=0.5;exitY=0;exitDx=0;exitDy=0;" parent="1" source="NfyWjWNFqi-aIi9zMegt-100" target="NfyWjWNFqi-aIi9zMegt-104" edge="1">
          <mxGeometry width="50" height="50" relative="1" as="geometry">
            <mxPoint x="-496" y="155" as="sourcePoint" />
            <mxPoint x="-446" y="105" as="targetPoint" />
          </mxGeometry>
        </mxCell>
        <mxCell id="NfyWjWNFqi-aIi9zMegt-106" value="" style="endArrow=none;html=1;rounded=0;exitX=0.5;exitY=0;exitDx=0;exitDy=0;entryX=0;entryY=0.75;entryDx=0;entryDy=0;entryPerimeter=0;" parent="1" source="NfyWjWNFqi-aIi9zMegt-102" target="NfyWjWNFqi-aIi9zMegt-104" edge="1">
          <mxGeometry width="50" height="50" relative="1" as="geometry">
            <mxPoint x="-311" y="159" as="sourcePoint" />
            <mxPoint x="-230" y="114" as="targetPoint" />
          </mxGeometry>
        </mxCell>
        <mxCell id="NfyWjWNFqi-aIi9zMegt-107" value="" style="endArrow=none;html=1;rounded=0;entryX=0.5;entryY=1;entryDx=0;entryDy=0;exitX=1;exitY=0.5;exitDx=0;exitDy=0;exitPerimeter=0;" parent="1" source="NfyWjWNFqi-aIi9zMegt-104" target="NfyWjWNFqi-aIi9zMegt-75" edge="1">
          <mxGeometry width="50" height="50" relative="1" as="geometry">
            <mxPoint x="-326" y="136" as="sourcePoint" />
            <mxPoint x="-258" y="76" as="targetPoint" />
          </mxGeometry>
        </mxCell>
        <mxCell id="NfyWjWNFqi-aIi9zMegt-108" value="Rapport d&#39;intervention" style="swimlane;fontStyle=0;childLayout=stackLayout;horizontal=1;startSize=30;horizontalStack=0;resizeParent=1;resizeParentMax=0;resizeLast=0;collapsible=1;marginBottom=0;whiteSpace=wrap;html=1;" parent="1" vertex="1">
          <mxGeometry x="154" y="101" width="140" height="150" as="geometry" />
        </mxCell>
        <mxCell id="NfyWjWNFqi-aIi9zMegt-161" value="id" style="text;strokeColor=none;fillColor=none;align=left;verticalAlign=middle;spacingLeft=4;spacingRight=4;overflow=hidden;points=[[0,0.5],[1,0.5]];portConstraint=eastwest;rotatable=0;whiteSpace=wrap;html=1;fontStyle=4" parent="NfyWjWNFqi-aIi9zMegt-108" vertex="1">
          <mxGeometry y="30" width="140" height="30" as="geometry" />
        </mxCell>
        <mxCell id="NfyWjWNFqi-aIi9zMegt-109" value="&lt;div&gt;titre&lt;/div&gt;" style="text;strokeColor=none;fillColor=none;align=left;verticalAlign=middle;spacingLeft=4;spacingRight=4;overflow=hidden;points=[[0,0.5],[1,0.5]];portConstraint=eastwest;rotatable=0;whiteSpace=wrap;html=1;" parent="NfyWjWNFqi-aIi9zMegt-108" vertex="1">
          <mxGeometry y="60" width="140" height="30" as="geometry" />
        </mxCell>
        <mxCell id="NfyWjWNFqi-aIi9zMegt-110" value="date" style="text;strokeColor=none;fillColor=none;align=left;verticalAlign=middle;spacingLeft=4;spacingRight=4;overflow=hidden;points=[[0,0.5],[1,0.5]];portConstraint=eastwest;rotatable=0;whiteSpace=wrap;html=1;" parent="NfyWjWNFqi-aIi9zMegt-108" vertex="1">
          <mxGeometry y="90" width="140" height="30" as="geometry" />
        </mxCell>
        <mxCell id="NfyWjWNFqi-aIi9zMegt-111" value="commentaire" style="text;strokeColor=none;fillColor=none;align=left;verticalAlign=middle;spacingLeft=4;spacingRight=4;overflow=hidden;points=[[0,0.5],[1,0.5]];portConstraint=eastwest;rotatable=0;whiteSpace=wrap;html=1;" parent="NfyWjWNFqi-aIi9zMegt-108" vertex="1">
          <mxGeometry y="120" width="140" height="30" as="geometry" />
        </mxCell>
        <mxCell id="NfyWjWNFqi-aIi9zMegt-114" value="" style="endArrow=classic;html=1;rounded=0;exitX=1;exitY=0.5;exitDx=0;exitDy=0;entryX=0;entryY=0;entryDx=0;entryDy=0;endSize=0;" parent="1" source="NfyWjWNFqi-aIi9zMegt-77" target="NfyWjWNFqi-aIi9zMegt-108" edge="1">
          <mxGeometry relative="1" as="geometry">
            <mxPoint x="-142" y="6" as="sourcePoint" />
            <mxPoint x="149" y="72" as="targetPoint" />
          </mxGeometry>
        </mxCell>
        <mxCell id="NfyWjWNFqi-aIi9zMegt-115" value="Rédige" style="edgeLabel;resizable=0;html=1;;align=center;verticalAlign=middle;" parent="NfyWjWNFqi-aIi9zMegt-114" connectable="0" vertex="1">
          <mxGeometry relative="1" as="geometry" />
        </mxCell>
        <mxCell id="NfyWjWNFqi-aIi9zMegt-116" value="0,n" style="edgeLabel;resizable=0;html=1;;align=left;verticalAlign=bottom;" parent="NfyWjWNFqi-aIi9zMegt-114" connectable="0" vertex="1">
          <mxGeometry x="-1" relative="1" as="geometry">
            <mxPoint x="3" y="22" as="offset" />
          </mxGeometry>
        </mxCell>
        <mxCell id="NfyWjWNFqi-aIi9zMegt-117" value="1,n" style="edgeLabel;resizable=0;html=1;;align=right;verticalAlign=bottom;" parent="NfyWjWNFqi-aIi9zMegt-114" connectable="0" vertex="1">
          <mxGeometry x="1" relative="1" as="geometry">
            <mxPoint x="-17" y="-4" as="offset" />
          </mxGeometry>
        </mxCell>
        <mxCell id="NfyWjWNFqi-aIi9zMegt-119" value="Zone" style="swimlane;fontStyle=0;childLayout=stackLayout;horizontal=1;startSize=30;horizontalStack=0;resizeParent=1;resizeParentMax=0;resizeLast=0;collapsible=1;marginBottom=0;whiteSpace=wrap;html=1;" parent="1" vertex="1">
          <mxGeometry x="290" y="-79" width="140" height="120" as="geometry" />
        </mxCell>
        <mxCell id="NfyWjWNFqi-aIi9zMegt-162" value="id" style="text;strokeColor=none;fillColor=none;align=left;verticalAlign=middle;spacingLeft=4;spacingRight=4;overflow=hidden;points=[[0,0.5],[1,0.5]];portConstraint=eastwest;rotatable=0;whiteSpace=wrap;html=1;fontStyle=4" parent="NfyWjWNFqi-aIi9zMegt-119" vertex="1">
          <mxGeometry y="30" width="140" height="30" as="geometry" />
        </mxCell>
        <mxCell id="NfyWjWNFqi-aIi9zMegt-120" value="&lt;div&gt;nom&lt;/div&gt;" style="text;strokeColor=none;fillColor=none;align=left;verticalAlign=middle;spacingLeft=4;spacingRight=4;overflow=hidden;points=[[0,0.5],[1,0.5]];portConstraint=eastwest;rotatable=0;whiteSpace=wrap;html=1;" parent="NfyWjWNFqi-aIi9zMegt-119" vertex="1">
          <mxGeometry y="60" width="140" height="30" as="geometry" />
        </mxCell>
        <mxCell id="NfyWjWNFqi-aIi9zMegt-123" value="reference" style="text;strokeColor=none;fillColor=none;align=left;verticalAlign=middle;spacingLeft=4;spacingRight=4;overflow=hidden;points=[[0,0.5],[1,0.5]];portConstraint=eastwest;rotatable=0;whiteSpace=wrap;html=1;" parent="NfyWjWNFqi-aIi9zMegt-119" vertex="1">
          <mxGeometry y="90" width="140" height="30" as="geometry" />
        </mxCell>
        <mxCell id="NfyWjWNFqi-aIi9zMegt-124" value="" style="endArrow=classic;html=1;rounded=0;entryX=0;entryY=0.5;entryDx=0;entryDy=0;exitX=1;exitY=0.5;exitDx=0;exitDy=0;endSize=0;" parent="1" source="NfyWjWNFqi-aIi9zMegt-74" target="NfyWjWNFqi-aIi9zMegt-119" edge="1">
          <mxGeometry relative="1" as="geometry">
            <mxPoint x="21" y="-395" as="sourcePoint" />
            <mxPoint x="181" y="-395" as="targetPoint" />
          </mxGeometry>
        </mxCell>
        <mxCell id="NfyWjWNFqi-aIi9zMegt-125" value="Gere" style="edgeLabel;resizable=0;html=1;;align=center;verticalAlign=middle;" parent="NfyWjWNFqi-aIi9zMegt-124" connectable="0" vertex="1">
          <mxGeometry relative="1" as="geometry" />
        </mxCell>
        <mxCell id="NfyWjWNFqi-aIi9zMegt-126" value="1,n" style="edgeLabel;resizable=0;html=1;;align=left;verticalAlign=bottom;" parent="NfyWjWNFqi-aIi9zMegt-124" connectable="0" vertex="1">
          <mxGeometry x="-1" relative="1" as="geometry">
            <mxPoint x="4" y="-2" as="offset" />
          </mxGeometry>
        </mxCell>
        <mxCell id="NfyWjWNFqi-aIi9zMegt-127" value="1,1" style="edgeLabel;resizable=0;html=1;;align=right;verticalAlign=bottom;" parent="NfyWjWNFqi-aIi9zMegt-124" connectable="0" vertex="1">
          <mxGeometry x="1" relative="1" as="geometry">
            <mxPoint x="-13" y="-19" as="offset" />
          </mxGeometry>
        </mxCell>
        <mxCell id="NfyWjWNFqi-aIi9zMegt-128" value="Rendez vous" style="swimlane;fontStyle=0;childLayout=stackLayout;horizontal=1;startSize=30;horizontalStack=0;resizeParent=1;resizeParentMax=0;resizeLast=0;collapsible=1;marginBottom=0;whiteSpace=wrap;html=1;" parent="1" vertex="1">
          <mxGeometry x="285" y="-240" width="140" height="120" as="geometry" />
        </mxCell>
        <mxCell id="NfyWjWNFqi-aIi9zMegt-165" value="id" style="text;strokeColor=none;fillColor=none;align=left;verticalAlign=middle;spacingLeft=4;spacingRight=4;overflow=hidden;points=[[0,0.5],[1,0.5]];portConstraint=eastwest;rotatable=0;whiteSpace=wrap;html=1;fontStyle=4" parent="NfyWjWNFqi-aIi9zMegt-128" vertex="1">
          <mxGeometry y="30" width="140" height="30" as="geometry" />
        </mxCell>
        <mxCell id="NfyWjWNFqi-aIi9zMegt-129" value="date" style="text;strokeColor=none;fillColor=none;align=left;verticalAlign=middle;spacingLeft=4;spacingRight=4;overflow=hidden;points=[[0,0.5],[1,0.5]];portConstraint=eastwest;rotatable=0;whiteSpace=wrap;html=1;" parent="NfyWjWNFqi-aIi9zMegt-128" vertex="1">
          <mxGeometry y="60" width="140" height="30" as="geometry" />
        </mxCell>
        <mxCell id="NfyWjWNFqi-aIi9zMegt-130" value="statut" style="text;strokeColor=none;fillColor=none;align=left;verticalAlign=middle;spacingLeft=4;spacingRight=4;overflow=hidden;points=[[0,0.5],[1,0.5]];portConstraint=eastwest;rotatable=0;whiteSpace=wrap;html=1;" parent="NfyWjWNFqi-aIi9zMegt-128" vertex="1">
          <mxGeometry y="90" width="140" height="30" as="geometry" />
        </mxCell>
        <mxCell id="NfyWjWNFqi-aIi9zMegt-131" value="" style="endArrow=classic;html=1;rounded=0;exitX=1;exitY=0;exitDx=0;exitDy=0;entryX=0;entryY=0.5;entryDx=0;entryDy=0;endSize=0;" parent="1" source="NfyWjWNFqi-aIi9zMegt-75" target="NfyWjWNFqi-aIi9zMegt-130" edge="1">
          <mxGeometry relative="1" as="geometry">
            <mxPoint x="21" y="-193" as="sourcePoint" />
            <mxPoint x="181" y="-193" as="targetPoint" />
          </mxGeometry>
        </mxCell>
        <mxCell id="NfyWjWNFqi-aIi9zMegt-132" value="&lt;div&gt;S&#39;occupe de&lt;br&gt;&lt;/div&gt;" style="edgeLabel;resizable=0;html=1;;align=center;verticalAlign=middle;" parent="NfyWjWNFqi-aIi9zMegt-131" connectable="0" vertex="1">
          <mxGeometry relative="1" as="geometry" />
        </mxCell>
        <mxCell id="NfyWjWNFqi-aIi9zMegt-133" value="0,n" style="edgeLabel;resizable=0;html=1;;align=left;verticalAlign=bottom;" parent="NfyWjWNFqi-aIi9zMegt-131" connectable="0" vertex="1">
          <mxGeometry x="-1" relative="1" as="geometry">
            <mxPoint x="-7" y="-10" as="offset" />
          </mxGeometry>
        </mxCell>
        <mxCell id="NfyWjWNFqi-aIi9zMegt-134" value="1,n" style="edgeLabel;resizable=0;html=1;;align=right;verticalAlign=bottom;" parent="NfyWjWNFqi-aIi9zMegt-131" connectable="0" vertex="1">
          <mxGeometry x="1" relative="1" as="geometry">
            <mxPoint x="-6" y="-3" as="offset" />
          </mxGeometry>
        </mxCell>
        <mxCell id="NfyWjWNFqi-aIi9zMegt-135" value="" style="endArrow=classic;html=1;rounded=0;entryX=0;entryY=0.5;entryDx=0;entryDy=0;exitX=1;exitY=0.5;exitDx=0;exitDy=0;endSize=0;" parent="1" source="NfyWjWNFqi-aIi9zMegt-76" target="NfyWjWNFqi-aIi9zMegt-123" edge="1">
          <mxGeometry relative="1" as="geometry">
            <mxPoint x="-25" y="-37" as="sourcePoint" />
            <mxPoint x="248" y="38" as="targetPoint" />
          </mxGeometry>
        </mxCell>
        <mxCell id="NfyWjWNFqi-aIi9zMegt-136" value="Est affecte a" style="edgeLabel;resizable=0;html=1;;align=center;verticalAlign=middle;" parent="NfyWjWNFqi-aIi9zMegt-135" connectable="0" vertex="1">
          <mxGeometry relative="1" as="geometry" />
        </mxCell>
        <mxCell id="NfyWjWNFqi-aIi9zMegt-137" value="1,n" style="edgeLabel;resizable=0;html=1;;align=left;verticalAlign=bottom;" parent="NfyWjWNFqi-aIi9zMegt-135" connectable="0" vertex="1">
          <mxGeometry x="-1" relative="1" as="geometry">
            <mxPoint x="4" y="-2" as="offset" />
          </mxGeometry>
        </mxCell>
        <mxCell id="NfyWjWNFqi-aIi9zMegt-138" value="0,n" style="edgeLabel;resizable=0;html=1;;align=right;verticalAlign=bottom;" parent="NfyWjWNFqi-aIi9zMegt-135" connectable="0" vertex="1">
          <mxGeometry x="1" relative="1" as="geometry">
            <mxPoint x="-10" y="22" as="offset" />
          </mxGeometry>
        </mxCell>
        <mxCell id="NfyWjWNFqi-aIi9zMegt-139" value="Lieu" style="swimlane;fontStyle=0;childLayout=stackLayout;horizontal=1;startSize=30;horizontalStack=0;resizeParent=1;resizeParentMax=0;resizeLast=0;collapsible=1;marginBottom=0;whiteSpace=wrap;html=1;" parent="1" vertex="1">
          <mxGeometry x="597" y="-160" width="140" height="150" as="geometry" />
        </mxCell>
        <mxCell id="NfyWjWNFqi-aIi9zMegt-164" value="id" style="text;strokeColor=none;fillColor=none;align=left;verticalAlign=middle;spacingLeft=4;spacingRight=4;overflow=hidden;points=[[0,0.5],[1,0.5]];portConstraint=eastwest;rotatable=0;whiteSpace=wrap;html=1;fontStyle=4" parent="NfyWjWNFqi-aIi9zMegt-139" vertex="1">
          <mxGeometry y="30" width="140" height="30" as="geometry" />
        </mxCell>
        <mxCell id="NfyWjWNFqi-aIi9zMegt-140" value="ville" style="text;strokeColor=none;fillColor=none;align=left;verticalAlign=middle;spacingLeft=4;spacingRight=4;overflow=hidden;points=[[0,0.5],[1,0.5]];portConstraint=eastwest;rotatable=0;whiteSpace=wrap;html=1;" parent="NfyWjWNFqi-aIi9zMegt-139" vertex="1">
          <mxGeometry y="60" width="140" height="30" as="geometry" />
        </mxCell>
        <mxCell id="NfyWjWNFqi-aIi9zMegt-141" value="code_postal" style="text;strokeColor=none;fillColor=none;align=left;verticalAlign=middle;spacingLeft=4;spacingRight=4;overflow=hidden;points=[[0,0.5],[1,0.5]];portConstraint=eastwest;rotatable=0;whiteSpace=wrap;html=1;" parent="NfyWjWNFqi-aIi9zMegt-139" vertex="1">
          <mxGeometry y="90" width="140" height="30" as="geometry" />
        </mxCell>
        <mxCell id="NfyWjWNFqi-aIi9zMegt-142" value="rue" style="text;strokeColor=none;fillColor=none;align=left;verticalAlign=middle;spacingLeft=4;spacingRight=4;overflow=hidden;points=[[0,0.5],[1,0.5]];portConstraint=eastwest;rotatable=0;whiteSpace=wrap;html=1;" parent="NfyWjWNFqi-aIi9zMegt-139" vertex="1">
          <mxGeometry y="120" width="140" height="30" as="geometry" />
        </mxCell>
        <mxCell id="NfyWjWNFqi-aIi9zMegt-143" value="" style="endArrow=classic;html=1;rounded=0;exitX=0;exitY=0.5;exitDx=0;exitDy=0;entryX=1;entryY=0.5;entryDx=0;entryDy=0;endSize=0;" parent="1" source="NfyWjWNFqi-aIi9zMegt-140" target="NfyWjWNFqi-aIi9zMegt-120" edge="1">
          <mxGeometry relative="1" as="geometry">
            <mxPoint x="21" y="-243" as="sourcePoint" />
            <mxPoint x="181" y="-243" as="targetPoint" />
          </mxGeometry>
        </mxCell>
        <mxCell id="NfyWjWNFqi-aIi9zMegt-144" value="Appartient a" style="edgeLabel;resizable=0;html=1;;align=center;verticalAlign=middle;" parent="NfyWjWNFqi-aIi9zMegt-143" connectable="0" vertex="1">
          <mxGeometry relative="1" as="geometry" />
        </mxCell>
        <mxCell id="NfyWjWNFqi-aIi9zMegt-145" value="1" style="edgeLabel;resizable=0;html=1;;align=left;verticalAlign=bottom;" parent="NfyWjWNFqi-aIi9zMegt-143" connectable="0" vertex="1">
          <mxGeometry x="-1" relative="1" as="geometry">
            <mxPoint x="-20" y="-5" as="offset" />
          </mxGeometry>
        </mxCell>
        <mxCell id="NfyWjWNFqi-aIi9zMegt-146" value="1,n" style="edgeLabel;resizable=0;html=1;;align=right;verticalAlign=bottom;" parent="NfyWjWNFqi-aIi9zMegt-143" connectable="0" vertex="1">
          <mxGeometry x="1" relative="1" as="geometry">
            <mxPoint x="19" y="-19" as="offset" />
          </mxGeometry>
        </mxCell>
        <mxCell id="NfyWjWNFqi-aIi9zMegt-147" value="" style="shape=or;whiteSpace=wrap;html=1;rotation=-90;" parent="1" vertex="1">
          <mxGeometry x="637" y="21" width="60" height="80" as="geometry" />
        </mxCell>
        <mxCell id="NfyWjWNFqi-aIi9zMegt-148" value="" style="endArrow=none;html=1;rounded=0;entryX=0.5;entryY=1;entryDx=0;entryDy=0;exitX=1;exitY=0.5;exitDx=0;exitDy=0;exitPerimeter=0;" parent="1" source="NfyWjWNFqi-aIi9zMegt-147" target="NfyWjWNFqi-aIi9zMegt-139" edge="1">
          <mxGeometry width="50" height="50" relative="1" as="geometry">
            <mxPoint x="76" y="-60" as="sourcePoint" />
            <mxPoint x="126" y="-110" as="targetPoint" />
          </mxGeometry>
        </mxCell>
        <mxCell id="NfyWjWNFqi-aIi9zMegt-149" value="Foyer" style="swimlane;fontStyle=0;childLayout=stackLayout;horizontal=1;startSize=30;horizontalStack=0;resizeParent=1;resizeParentMax=0;resizeLast=0;collapsible=1;marginBottom=0;whiteSpace=wrap;html=1;" parent="1" vertex="1">
          <mxGeometry x="502" y="152" width="140" height="60" as="geometry" />
        </mxCell>
        <mxCell id="NfyWjWNFqi-aIi9zMegt-163" value="id_foyer" style="text;strokeColor=none;fillColor=none;align=left;verticalAlign=middle;spacingLeft=4;spacingRight=4;overflow=hidden;points=[[0,0.5],[1,0.5]];portConstraint=eastwest;rotatable=0;whiteSpace=wrap;html=1;fontStyle=4" parent="NfyWjWNFqi-aIi9zMegt-149" vertex="1">
          <mxGeometry y="30" width="140" height="30" as="geometry" />
        </mxCell>
        <mxCell id="NfyWjWNFqi-aIi9zMegt-166" value="Espace vert" style="swimlane;fontStyle=0;childLayout=stackLayout;horizontal=1;startSize=30;horizontalStack=0;resizeParent=1;resizeParentMax=0;resizeLast=0;collapsible=1;marginBottom=0;whiteSpace=wrap;html=1;" parent="1" vertex="1">
          <mxGeometry x="703" y="152" width="140" height="90" as="geometry" />
        </mxCell>
        <mxCell id="NfyWjWNFqi-aIi9zMegt-167" value="id_espace_vert" style="text;strokeColor=none;fillColor=none;align=left;verticalAlign=middle;spacingLeft=4;spacingRight=4;overflow=hidden;points=[[0,0.5],[1,0.5]];portConstraint=eastwest;rotatable=0;whiteSpace=wrap;html=1;fontStyle=4" parent="NfyWjWNFqi-aIi9zMegt-166" vertex="1">
          <mxGeometry y="30" width="140" height="30" as="geometry" />
        </mxCell>
        <mxCell id="NfyWjWNFqi-aIi9zMegt-190" value="reference" style="text;strokeColor=none;fillColor=none;align=left;verticalAlign=middle;spacingLeft=4;spacingRight=4;overflow=hidden;points=[[0,0.5],[1,0.5]];portConstraint=eastwest;rotatable=0;whiteSpace=wrap;html=1;fontStyle=4" parent="NfyWjWNFqi-aIi9zMegt-166" vertex="1">
          <mxGeometry y="60" width="140" height="30" as="geometry" />
        </mxCell>
        <mxCell id="NfyWjWNFqi-aIi9zMegt-168" value="" style="endArrow=none;html=1;rounded=0;entryX=0;entryY=0.25;entryDx=0;entryDy=0;entryPerimeter=0;exitX=0.5;exitY=0;exitDx=0;exitDy=0;" parent="1" source="NfyWjWNFqi-aIi9zMegt-149" target="NfyWjWNFqi-aIi9zMegt-147" edge="1">
          <mxGeometry width="50" height="50" relative="1" as="geometry">
            <mxPoint x="76" y="-80" as="sourcePoint" />
            <mxPoint x="126" y="-130" as="targetPoint" />
          </mxGeometry>
        </mxCell>
        <mxCell id="NfyWjWNFqi-aIi9zMegt-169" value="" style="endArrow=none;html=1;rounded=0;entryX=0.5;entryY=0;entryDx=0;entryDy=0;exitX=0;exitY=0.75;exitDx=0;exitDy=0;exitPerimeter=0;" parent="1" source="NfyWjWNFqi-aIi9zMegt-147" target="NfyWjWNFqi-aIi9zMegt-166" edge="1">
          <mxGeometry width="50" height="50" relative="1" as="geometry">
            <mxPoint x="74" y="-80" as="sourcePoint" />
            <mxPoint x="126" y="-130" as="targetPoint" />
          </mxGeometry>
        </mxCell>
        <mxCell id="NfyWjWNFqi-aIi9zMegt-170" value="" style="endArrow=classic;html=1;rounded=0;entryX=0;entryY=1;entryDx=0;entryDy=0;exitX=0.25;exitY=1;exitDx=0;exitDy=0;endSize=0;" parent="1" source="NfyWjWNFqi-aIi9zMegt-70" target="NfyWjWNFqi-aIi9zMegt-149" edge="1">
          <mxGeometry relative="1" as="geometry">
            <mxPoint x="96" y="353" as="sourcePoint" />
            <mxPoint x="256" y="353" as="targetPoint" />
            <Array as="points">
              <mxPoint x="-466" y="314" />
              <mxPoint x="507" y="324" />
            </Array>
          </mxGeometry>
        </mxCell>
        <mxCell id="NfyWjWNFqi-aIi9zMegt-171" value="Habite dans" style="edgeLabel;resizable=0;html=1;;align=center;verticalAlign=middle;" parent="NfyWjWNFqi-aIi9zMegt-170" connectable="0" vertex="1">
          <mxGeometry relative="1" as="geometry">
            <mxPoint x="111" y="-1" as="offset" />
          </mxGeometry>
        </mxCell>
        <mxCell id="NfyWjWNFqi-aIi9zMegt-172" value="1,1" style="edgeLabel;resizable=0;html=1;;align=left;verticalAlign=bottom;" parent="NfyWjWNFqi-aIi9zMegt-170" connectable="0" vertex="1">
          <mxGeometry x="-1" relative="1" as="geometry">
            <mxPoint x="-20" y="18" as="offset" />
          </mxGeometry>
        </mxCell>
        <mxCell id="NfyWjWNFqi-aIi9zMegt-173" value="0,n" style="edgeLabel;resizable=0;html=1;;align=right;verticalAlign=bottom;" parent="NfyWjWNFqi-aIi9zMegt-170" connectable="0" vertex="1">
          <mxGeometry x="1" relative="1" as="geometry">
            <mxPoint x="-10" y="26" as="offset" />
          </mxGeometry>
        </mxCell>
        <mxCell id="NfyWjWNFqi-aIi9zMegt-174" value="" style="endArrow=classic;html=1;rounded=0;entryX=0;entryY=1;entryDx=0;entryDy=0;exitX=1;exitY=0.25;exitDx=0;exitDy=0;endSize=0;" parent="1" source="NfyWjWNFqi-aIi9zMegt-108" target="NfyWjWNFqi-aIi9zMegt-139" edge="1">
          <mxGeometry relative="1" as="geometry">
            <mxPoint x="21" y="-95" as="sourcePoint" />
            <mxPoint x="181" y="-95" as="targetPoint" />
          </mxGeometry>
        </mxCell>
        <mxCell id="NfyWjWNFqi-aIi9zMegt-175" value="Concerne" style="edgeLabel;resizable=0;html=1;;align=center;verticalAlign=middle;" parent="NfyWjWNFqi-aIi9zMegt-174" connectable="0" vertex="1">
          <mxGeometry relative="1" as="geometry" />
        </mxCell>
        <mxCell id="NfyWjWNFqi-aIi9zMegt-176" value="1,1" style="edgeLabel;resizable=0;html=1;;align=left;verticalAlign=bottom;" parent="NfyWjWNFqi-aIi9zMegt-174" connectable="0" vertex="1">
          <mxGeometry x="-1" relative="1" as="geometry">
            <mxPoint x="9" y="16" as="offset" />
          </mxGeometry>
        </mxCell>
        <mxCell id="NfyWjWNFqi-aIi9zMegt-177" value="0.n" style="edgeLabel;resizable=0;html=1;;align=right;verticalAlign=bottom;" parent="NfyWjWNFqi-aIi9zMegt-174" connectable="0" vertex="1">
          <mxGeometry x="1" relative="1" as="geometry">
            <mxPoint x="7" y="26" as="offset" />
          </mxGeometry>
        </mxCell>
        <mxCell id="NfyWjWNFqi-aIi9zMegt-185" value="Action" style="swimlane;fontStyle=0;childLayout=stackLayout;horizontal=1;startSize=30;horizontalStack=0;resizeParent=1;resizeParentMax=0;resizeLast=0;collapsible=1;marginBottom=0;whiteSpace=wrap;html=1;" parent="1" vertex="1">
          <mxGeometry x="406" y="-462" width="140" height="150" as="geometry" />
        </mxCell>
        <mxCell id="NfyWjWNFqi-aIi9zMegt-186" value="id" style="text;strokeColor=none;fillColor=none;align=left;verticalAlign=middle;spacingLeft=4;spacingRight=4;overflow=hidden;points=[[0,0.5],[1,0.5]];portConstraint=eastwest;rotatable=0;whiteSpace=wrap;html=1;fontStyle=4" parent="NfyWjWNFqi-aIi9zMegt-185" vertex="1">
          <mxGeometry y="30" width="140" height="30" as="geometry" />
        </mxCell>
        <mxCell id="NfyWjWNFqi-aIi9zMegt-187" value="titre" style="text;strokeColor=none;fillColor=none;align=left;verticalAlign=middle;spacingLeft=4;spacingRight=4;overflow=hidden;points=[[0,0.5],[1,0.5]];portConstraint=eastwest;rotatable=0;whiteSpace=wrap;html=1;" parent="NfyWjWNFqi-aIi9zMegt-185" vertex="1">
          <mxGeometry y="60" width="140" height="30" as="geometry" />
        </mxCell>
        <mxCell id="NfyWjWNFqi-aIi9zMegt-188" value="date" style="text;strokeColor=none;fillColor=none;align=left;verticalAlign=middle;spacingLeft=4;spacingRight=4;overflow=hidden;points=[[0,0.5],[1,0.5]];portConstraint=eastwest;rotatable=0;whiteSpace=wrap;html=1;" parent="NfyWjWNFqi-aIi9zMegt-185" vertex="1">
          <mxGeometry y="90" width="140" height="30" as="geometry" />
        </mxCell>
        <mxCell id="NfyWjWNFqi-aIi9zMegt-189" value="statut" style="text;strokeColor=none;fillColor=none;align=left;verticalAlign=middle;spacingLeft=4;spacingRight=4;overflow=hidden;points=[[0,0.5],[1,0.5]];portConstraint=eastwest;rotatable=0;whiteSpace=wrap;html=1;" parent="NfyWjWNFqi-aIi9zMegt-185" vertex="1">
          <mxGeometry y="120" width="140" height="30" as="geometry" />
        </mxCell>
        <mxCell id="NfyWjWNFqi-aIi9zMegt-191" value="Alerte" style="swimlane;fontStyle=0;childLayout=stackLayout;horizontal=1;startSize=30;horizontalStack=0;resizeParent=1;resizeParentMax=0;resizeLast=0;collapsible=1;marginBottom=0;whiteSpace=wrap;html=1;" parent="1" vertex="1">
          <mxGeometry x="687" y="-471" width="140" height="180" as="geometry" />
        </mxCell>
        <mxCell id="NfyWjWNFqi-aIi9zMegt-192" value="id" style="text;strokeColor=none;fillColor=none;align=left;verticalAlign=middle;spacingLeft=4;spacingRight=4;overflow=hidden;points=[[0,0.5],[1,0.5]];portConstraint=eastwest;rotatable=0;whiteSpace=wrap;html=1;fontStyle=4" parent="NfyWjWNFqi-aIi9zMegt-191" vertex="1">
          <mxGeometry y="30" width="140" height="30" as="geometry" />
        </mxCell>
        <mxCell id="NfyWjWNFqi-aIi9zMegt-193" value="titre" style="text;strokeColor=none;fillColor=none;align=left;verticalAlign=middle;spacingLeft=4;spacingRight=4;overflow=hidden;points=[[0,0.5],[1,0.5]];portConstraint=eastwest;rotatable=0;whiteSpace=wrap;html=1;" parent="NfyWjWNFqi-aIi9zMegt-191" vertex="1">
          <mxGeometry y="60" width="140" height="30" as="geometry" />
        </mxCell>
        <mxCell id="NfyWjWNFqi-aIi9zMegt-196" value="message" style="text;strokeColor=none;fillColor=none;align=left;verticalAlign=middle;spacingLeft=4;spacingRight=4;overflow=hidden;points=[[0,0.5],[1,0.5]];portConstraint=eastwest;rotatable=0;whiteSpace=wrap;html=1;" parent="NfyWjWNFqi-aIi9zMegt-191" vertex="1">
          <mxGeometry y="90" width="140" height="30" as="geometry" />
        </mxCell>
        <mxCell id="NfyWjWNFqi-aIi9zMegt-195" value="ouvert" style="text;strokeColor=none;fillColor=none;align=left;verticalAlign=middle;spacingLeft=4;spacingRight=4;overflow=hidden;points=[[0,0.5],[1,0.5]];portConstraint=eastwest;rotatable=0;whiteSpace=wrap;html=1;" parent="NfyWjWNFqi-aIi9zMegt-191" vertex="1">
          <mxGeometry y="120" width="140" height="30" as="geometry" />
        </mxCell>
        <mxCell id="NfyWjWNFqi-aIi9zMegt-194" value="date_creation" style="text;strokeColor=none;fillColor=none;align=left;verticalAlign=middle;spacingLeft=4;spacingRight=4;overflow=hidden;points=[[0,0.5],[1,0.5]];portConstraint=eastwest;rotatable=0;whiteSpace=wrap;html=1;" parent="NfyWjWNFqi-aIi9zMegt-191" vertex="1">
          <mxGeometry y="150" width="140" height="30" as="geometry" />
        </mxCell>
        <mxCell id="NfyWjWNFqi-aIi9zMegt-197" value="" style="endArrow=classic;html=1;rounded=0;entryX=0;entryY=0.5;entryDx=0;entryDy=0;exitX=1;exitY=0.25;exitDx=0;exitDy=0;endSize=0;" parent="1" source="NfyWjWNFqi-aIi9zMegt-185" target="NfyWjWNFqi-aIi9zMegt-192" edge="1">
          <mxGeometry relative="1" as="geometry">
            <mxPoint x="244" y="-420" as="sourcePoint" />
            <mxPoint x="404" y="-420" as="targetPoint" />
          </mxGeometry>
        </mxCell>
        <mxCell id="NfyWjWNFqi-aIi9zMegt-198" value="Concerne" style="edgeLabel;resizable=0;html=1;;align=center;verticalAlign=middle;" parent="NfyWjWNFqi-aIi9zMegt-197" connectable="0" vertex="1">
          <mxGeometry relative="1" as="geometry" />
        </mxCell>
        <mxCell id="NfyWjWNFqi-aIi9zMegt-199" value="1,1" style="edgeLabel;resizable=0;html=1;;align=left;verticalAlign=bottom;" parent="NfyWjWNFqi-aIi9zMegt-197" connectable="0" vertex="1">
          <mxGeometry x="-1" relative="1" as="geometry">
            <mxPoint x="4" y="-1" as="offset" />
          </mxGeometry>
        </mxCell>
        <mxCell id="NfyWjWNFqi-aIi9zMegt-200" value="0,n" style="edgeLabel;resizable=0;html=1;;align=right;verticalAlign=bottom;" parent="NfyWjWNFqi-aIi9zMegt-197" connectable="0" vertex="1">
          <mxGeometry x="1" relative="1" as="geometry">
            <mxPoint x="-7" y="-4" as="offset" />
          </mxGeometry>
        </mxCell>
        <mxCell id="NfyWjWNFqi-aIi9zMegt-202" value="" style="endArrow=classic;html=1;rounded=0;exitX=0;exitY=0;exitDx=0;exitDy=0;entryX=0;entryY=0.5;entryDx=0;entryDy=0;endSize=0;" parent="1" source="NfyWjWNFqi-aIi9zMegt-185" target="NfyWjWNFqi-aIi9zMegt-77" edge="1">
          <mxGeometry relative="1" as="geometry">
            <mxPoint x="3" y="-688" as="sourcePoint" />
            <mxPoint x="-952" y="-160" as="targetPoint" />
            <Array as="points">
              <mxPoint x="410" y="-526" />
              <mxPoint x="-749" y="-539" />
              <mxPoint x="-753" y="2" />
            </Array>
          </mxGeometry>
        </mxCell>
        <mxCell id="NfyWjWNFqi-aIi9zMegt-203" value="Rapporte" style="edgeLabel;resizable=0;html=1;;align=center;verticalAlign=middle;" parent="NfyWjWNFqi-aIi9zMegt-202" connectable="0" vertex="1">
          <mxGeometry relative="1" as="geometry">
            <mxPoint x="-120" as="offset" />
          </mxGeometry>
        </mxCell>
        <mxCell id="NfyWjWNFqi-aIi9zMegt-204" value="1,1" style="edgeLabel;resizable=0;html=1;;align=left;verticalAlign=bottom;" parent="NfyWjWNFqi-aIi9zMegt-202" connectable="0" vertex="1">
          <mxGeometry x="-1" relative="1" as="geometry">
            <mxPoint x="-25" y="6" as="offset" />
          </mxGeometry>
        </mxCell>
        <mxCell id="NfyWjWNFqi-aIi9zMegt-205" value="0,n" style="edgeLabel;resizable=0;html=1;;align=right;verticalAlign=bottom;" parent="NfyWjWNFqi-aIi9zMegt-202" connectable="0" vertex="1">
          <mxGeometry x="1" relative="1" as="geometry">
            <mxPoint x="-7" y="27" as="offset" />
          </mxGeometry>
        </mxCell>
        <mxCell id="NfyWjWNFqi-aIi9zMegt-206" value="Arrivee d eau" style="swimlane;fontStyle=0;childLayout=stackLayout;horizontal=1;startSize=30;horizontalStack=0;resizeParent=1;resizeParentMax=0;resizeLast=0;collapsible=1;marginBottom=0;whiteSpace=wrap;html=1;" parent="1" vertex="1">
          <mxGeometry x="1025" y="-163" width="148" height="150" as="geometry" />
        </mxCell>
        <mxCell id="NfyWjWNFqi-aIi9zMegt-207" value="id" style="text;strokeColor=none;fillColor=none;align=left;verticalAlign=middle;spacingLeft=4;spacingRight=4;overflow=hidden;points=[[0,0.5],[1,0.5]];portConstraint=eastwest;rotatable=0;whiteSpace=wrap;html=1;fontStyle=4" parent="NfyWjWNFqi-aIi9zMegt-206" vertex="1">
          <mxGeometry y="30" width="148" height="30" as="geometry" />
        </mxCell>
        <mxCell id="NfyWjWNFqi-aIi9zMegt-210" value="reference" style="text;strokeColor=none;fillColor=none;align=left;verticalAlign=middle;spacingLeft=4;spacingRight=4;overflow=hidden;points=[[0,0.5],[1,0.5]];portConstraint=eastwest;rotatable=0;whiteSpace=wrap;html=1;" parent="NfyWjWNFqi-aIi9zMegt-206" vertex="1">
          <mxGeometry y="60" width="148" height="30" as="geometry" />
        </mxCell>
        <mxCell id="NfyWjWNFqi-aIi9zMegt-208" value="consomation_d_eau" style="text;strokeColor=none;fillColor=none;align=left;verticalAlign=middle;spacingLeft=4;spacingRight=4;overflow=hidden;points=[[0,0.5],[1,0.5]];portConstraint=eastwest;rotatable=0;whiteSpace=wrap;html=1;" parent="NfyWjWNFqi-aIi9zMegt-206" vertex="1">
          <mxGeometry y="90" width="148" height="30" as="geometry" />
        </mxCell>
        <mxCell id="NfyWjWNFqi-aIi9zMegt-209" value="pression_d_eau" style="text;strokeColor=none;fillColor=none;align=left;verticalAlign=middle;spacingLeft=4;spacingRight=4;overflow=hidden;points=[[0,0.5],[1,0.5]];portConstraint=eastwest;rotatable=0;whiteSpace=wrap;html=1;" parent="NfyWjWNFqi-aIi9zMegt-206" vertex="1">
          <mxGeometry y="120" width="148" height="30" as="geometry" />
        </mxCell>
        <mxCell id="NfyWjWNFqi-aIi9zMegt-211" value="" style="endArrow=classic;html=1;rounded=0;endSize=0;exitX=1;exitY=0.5;exitDx=0;exitDy=0;entryX=0;entryY=0.5;entryDx=0;entryDy=0;" parent="1" source="NfyWjWNFqi-aIi9zMegt-164" target="NfyWjWNFqi-aIi9zMegt-207" edge="1">
          <mxGeometry relative="1" as="geometry">
            <mxPoint x="807" y="-203" as="sourcePoint" />
            <mxPoint x="967" y="-203" as="targetPoint" />
          </mxGeometry>
        </mxCell>
        <mxCell id="NfyWjWNFqi-aIi9zMegt-212" value="Se situe dans" style="edgeLabel;resizable=0;html=1;;align=center;verticalAlign=middle;" parent="NfyWjWNFqi-aIi9zMegt-211" connectable="0" vertex="1">
          <mxGeometry relative="1" as="geometry" />
        </mxCell>
        <mxCell id="NfyWjWNFqi-aIi9zMegt-213" value="0,n" style="edgeLabel;resizable=0;html=1;;align=left;verticalAlign=bottom;" parent="NfyWjWNFqi-aIi9zMegt-211" connectable="0" vertex="1">
          <mxGeometry x="-1" relative="1" as="geometry">
            <mxPoint x="2" y="-5" as="offset" />
          </mxGeometry>
        </mxCell>
        <mxCell id="NfyWjWNFqi-aIi9zMegt-214" value="1,1" style="edgeLabel;resizable=0;html=1;;align=right;verticalAlign=bottom;" parent="NfyWjWNFqi-aIi9zMegt-211" connectable="0" vertex="1">
          <mxGeometry x="1" relative="1" as="geometry">
            <mxPoint x="-4" y="-6" as="offset" />
          </mxGeometry>
        </mxCell>
        <mxCell id="NfyWjWNFqi-aIi9zMegt-216" value="" style="shape=or;whiteSpace=wrap;html=1;rotation=90;" parent="1" vertex="1">
          <mxGeometry x="1065" y="-283" width="60" height="80" as="geometry" />
        </mxCell>
        <mxCell id="NfyWjWNFqi-aIi9zMegt-221" value="Arrivee d eau automatique" style="swimlane;fontStyle=0;childLayout=stackLayout;horizontal=1;startSize=30;horizontalStack=0;resizeParent=1;resizeParentMax=0;resizeLast=0;collapsible=1;marginBottom=0;whiteSpace=wrap;html=1;" parent="1" vertex="1">
          <mxGeometry x="881" y="-518" width="211" height="120" as="geometry" />
        </mxCell>
        <mxCell id="NfyWjWNFqi-aIi9zMegt-222" value="id_arrivee_d_eau_automatique" style="text;strokeColor=none;fillColor=none;align=left;verticalAlign=middle;spacingLeft=4;spacingRight=4;overflow=hidden;points=[[0,0.5],[1,0.5]];portConstraint=eastwest;rotatable=0;whiteSpace=wrap;html=1;fontStyle=4" parent="NfyWjWNFqi-aIi9zMegt-221" vertex="1">
          <mxGeometry y="30" width="211" height="30" as="geometry" />
        </mxCell>
        <mxCell id="NfyWjWNFqi-aIi9zMegt-225" value="programmation" style="text;strokeColor=none;fillColor=none;align=left;verticalAlign=middle;spacingLeft=4;spacingRight=4;overflow=hidden;points=[[0,0.5],[1,0.5]];portConstraint=eastwest;rotatable=0;whiteSpace=wrap;html=1;" parent="NfyWjWNFqi-aIi9zMegt-221" vertex="1">
          <mxGeometry y="60" width="211" height="30" as="geometry" />
        </mxCell>
        <mxCell id="NfyWjWNFqi-aIi9zMegt-232" value="actif" style="text;strokeColor=none;fillColor=none;align=left;verticalAlign=middle;spacingLeft=4;spacingRight=4;overflow=hidden;points=[[0,0.5],[1,0.5]];portConstraint=eastwest;rotatable=0;whiteSpace=wrap;html=1;" parent="NfyWjWNFqi-aIi9zMegt-221" vertex="1">
          <mxGeometry y="90" width="211" height="30" as="geometry" />
        </mxCell>
        <mxCell id="NfyWjWNFqi-aIi9zMegt-226" value="Arrivee d eau manuelle" style="swimlane;fontStyle=0;childLayout=stackLayout;horizontal=1;startSize=30;horizontalStack=0;resizeParent=1;resizeParentMax=0;resizeLast=0;collapsible=1;marginBottom=0;whiteSpace=wrap;html=1;" parent="1" vertex="1">
          <mxGeometry x="1111" y="-518" width="191" height="60" as="geometry" />
        </mxCell>
        <mxCell id="NfyWjWNFqi-aIi9zMegt-227" value="id_Arrivee_d_eau_manuelle" style="text;strokeColor=none;fillColor=none;align=left;verticalAlign=middle;spacingLeft=4;spacingRight=4;overflow=hidden;points=[[0,0.5],[1,0.5]];portConstraint=eastwest;rotatable=0;whiteSpace=wrap;html=1;fontStyle=4" parent="NfyWjWNFqi-aIi9zMegt-226" vertex="1">
          <mxGeometry y="30" width="191" height="30" as="geometry" />
        </mxCell>
        <mxCell id="NfyWjWNFqi-aIi9zMegt-231" value="" style="endArrow=none;html=1;rounded=0;exitX=0;exitY=0.75;exitDx=0;exitDy=0;exitPerimeter=0;entryX=0.508;entryY=1.091;entryDx=0;entryDy=0;entryPerimeter=0;" parent="1" source="NfyWjWNFqi-aIi9zMegt-216" target="NfyWjWNFqi-aIi9zMegt-232" edge="1">
          <mxGeometry width="50" height="50" relative="1" as="geometry">
            <mxPoint x="945" y="-318" as="sourcePoint" />
            <mxPoint x="932" y="-326" as="targetPoint" />
          </mxGeometry>
        </mxCell>
        <mxCell id="NfyWjWNFqi-aIi9zMegt-233" value="" style="endArrow=none;html=1;rounded=0;exitX=0;exitY=0.25;exitDx=0;exitDy=0;exitPerimeter=0;entryX=0.533;entryY=1.12;entryDx=0;entryDy=0;entryPerimeter=0;" parent="1" source="NfyWjWNFqi-aIi9zMegt-216" target="NfyWjWNFqi-aIi9zMegt-227" edge="1">
          <mxGeometry width="50" height="50" relative="1" as="geometry">
            <mxPoint x="1085" y="-263" as="sourcePoint" />
            <mxPoint x="995" y="-382" as="targetPoint" />
          </mxGeometry>
        </mxCell>
        <mxCell id="NfyWjWNFqi-aIi9zMegt-234" value="" style="endArrow=none;html=1;rounded=0;exitX=0.5;exitY=0;exitDx=0;exitDy=0;entryX=1;entryY=0.5;entryDx=0;entryDy=0;entryPerimeter=0;" parent="1" source="NfyWjWNFqi-aIi9zMegt-206" target="NfyWjWNFqi-aIi9zMegt-216" edge="1">
          <mxGeometry width="50" height="50" relative="1" as="geometry">
            <mxPoint x="1125" y="-263" as="sourcePoint" />
            <mxPoint x="1192" y="-441" as="targetPoint" />
          </mxGeometry>
        </mxCell>
        <mxCell id="NfyWjWNFqi-aIi9zMegt-236" value="" style="endArrow=classic;html=1;rounded=0;exitX=1;exitY=0.5;exitDx=0;exitDy=0;entryX=0;entryY=0;entryDx=0;entryDy=0;endSize=0;" parent="1" source="NfyWjWNFqi-aIi9zMegt-194" target="NfyWjWNFqi-aIi9zMegt-206" edge="1">
          <mxGeometry relative="1" as="geometry">
            <mxPoint x="835" y="-208" as="sourcePoint" />
            <mxPoint x="995" y="-208" as="targetPoint" />
          </mxGeometry>
        </mxCell>
        <mxCell id="NfyWjWNFqi-aIi9zMegt-237" value="Concerne" style="edgeLabel;resizable=0;html=1;;align=center;verticalAlign=middle;" parent="NfyWjWNFqi-aIi9zMegt-236" connectable="0" vertex="1">
          <mxGeometry relative="1" as="geometry" />
        </mxCell>
        <mxCell id="NfyWjWNFqi-aIi9zMegt-238" value="1,1" style="edgeLabel;resizable=0;html=1;;align=left;verticalAlign=bottom;" parent="NfyWjWNFqi-aIi9zMegt-236" connectable="0" vertex="1">
          <mxGeometry x="-1" relative="1" as="geometry">
            <mxPoint x="6" y="1" as="offset" />
          </mxGeometry>
        </mxCell>
        <mxCell id="NfyWjWNFqi-aIi9zMegt-239" value="0,n" style="edgeLabel;resizable=0;html=1;;align=right;verticalAlign=bottom;" parent="NfyWjWNFqi-aIi9zMegt-236" connectable="0" vertex="1">
          <mxGeometry x="1" relative="1" as="geometry">
            <mxPoint x="-14" y="10" as="offset" />
          </mxGeometry>
        </mxCell>
        <mxCell id="NfyWjWNFqi-aIi9zMegt-240" value="Rapport de consommation" style="swimlane;fontStyle=0;childLayout=stackLayout;horizontal=1;startSize=30;horizontalStack=0;resizeParent=1;resizeParentMax=0;resizeLast=0;collapsible=1;marginBottom=0;whiteSpace=wrap;html=1;" parent="1" vertex="1">
          <mxGeometry x="1025" y="86" width="140" height="180" as="geometry" />
        </mxCell>
        <mxCell id="NfyWjWNFqi-aIi9zMegt-241" value="id" style="text;strokeColor=none;fillColor=none;align=left;verticalAlign=middle;spacingLeft=4;spacingRight=4;overflow=hidden;points=[[0,0.5],[1,0.5]];portConstraint=eastwest;rotatable=0;whiteSpace=wrap;html=1;fontStyle=4" parent="NfyWjWNFqi-aIi9zMegt-240" vertex="1">
          <mxGeometry y="30" width="140" height="30" as="geometry" />
        </mxCell>
        <mxCell id="NfyWjWNFqi-aIi9zMegt-244" value="date_debut" style="text;strokeColor=none;fillColor=none;align=left;verticalAlign=middle;spacingLeft=4;spacingRight=4;overflow=hidden;points=[[0,0.5],[1,0.5]];portConstraint=eastwest;rotatable=0;whiteSpace=wrap;html=1;" parent="NfyWjWNFqi-aIi9zMegt-240" vertex="1">
          <mxGeometry y="60" width="140" height="30" as="geometry" />
        </mxCell>
        <mxCell id="NfyWjWNFqi-aIi9zMegt-245" value="date_fin" style="text;strokeColor=none;fillColor=none;align=left;verticalAlign=middle;spacingLeft=4;spacingRight=4;overflow=hidden;points=[[0,0.5],[1,0.5]];portConstraint=eastwest;rotatable=0;whiteSpace=wrap;html=1;" parent="NfyWjWNFqi-aIi9zMegt-240" vertex="1">
          <mxGeometry y="90" width="140" height="30" as="geometry" />
        </mxCell>
        <mxCell id="NfyWjWNFqi-aIi9zMegt-246" value="eau_consommee_litres" style="text;strokeColor=none;fillColor=none;align=left;verticalAlign=middle;spacingLeft=4;spacingRight=4;overflow=hidden;points=[[0,0.5],[1,0.5]];portConstraint=eastwest;rotatable=0;whiteSpace=wrap;html=1;" parent="NfyWjWNFqi-aIi9zMegt-240" vertex="1">
          <mxGeometry y="120" width="140" height="30" as="geometry" />
        </mxCell>
        <mxCell id="NfyWjWNFqi-aIi9zMegt-247" value="pression_moyenne" style="text;strokeColor=none;fillColor=none;align=left;verticalAlign=middle;spacingLeft=4;spacingRight=4;overflow=hidden;points=[[0,0.5],[1,0.5]];portConstraint=eastwest;rotatable=0;whiteSpace=wrap;html=1;" parent="NfyWjWNFqi-aIi9zMegt-240" vertex="1">
          <mxGeometry y="150" width="140" height="30" as="geometry" />
        </mxCell>
        <mxCell id="NfyWjWNFqi-aIi9zMegt-248" value="" style="endArrow=classic;html=1;rounded=0;exitX=0.498;exitY=1.025;exitDx=0;exitDy=0;exitPerimeter=0;entryX=0.5;entryY=0;entryDx=0;entryDy=0;endSize=0;" parent="1" source="NfyWjWNFqi-aIi9zMegt-209" target="NfyWjWNFqi-aIi9zMegt-240" edge="1">
          <mxGeometry relative="1" as="geometry">
            <mxPoint x="853" y="-41" as="sourcePoint" />
            <mxPoint x="1013" y="-41" as="targetPoint" />
          </mxGeometry>
        </mxCell>
        <mxCell id="NfyWjWNFqi-aIi9zMegt-249" value="Genere" style="edgeLabel;resizable=0;html=1;;align=center;verticalAlign=middle;" parent="NfyWjWNFqi-aIi9zMegt-248" connectable="0" vertex="1">
          <mxGeometry relative="1" as="geometry" />
        </mxCell>
        <mxCell id="NfyWjWNFqi-aIi9zMegt-250" value="0,n" style="edgeLabel;resizable=0;html=1;;align=left;verticalAlign=bottom;" parent="NfyWjWNFqi-aIi9zMegt-248" connectable="0" vertex="1">
          <mxGeometry x="-1" relative="1" as="geometry">
            <mxPoint x="3" y="17" as="offset" />
          </mxGeometry>
        </mxCell>
        <mxCell id="NfyWjWNFqi-aIi9zMegt-251" value="1,1" style="edgeLabel;resizable=0;html=1;;align=right;verticalAlign=bottom;" parent="NfyWjWNFqi-aIi9zMegt-248" connectable="0" vertex="1">
          <mxGeometry x="1" relative="1" as="geometry">
            <mxPoint x="-11" y="-5" as="offset" />
          </mxGeometry>
        </mxCell>
        <mxCell id="NfyWjWNFqi-aIi9zMegt-252" value="" style="endArrow=classic;html=1;rounded=0;endSize=0;entryX=0;entryY=0;entryDx=0;entryDy=0;exitX=1;exitY=0;exitDx=0;exitDy=0;" parent="1" source="NfyWjWNFqi-aIi9zMegt-128" target="NfyWjWNFqi-aIi9zMegt-139" edge="1">
          <mxGeometry relative="1" as="geometry">
            <mxPoint x="397" y="-168" as="sourcePoint" />
            <mxPoint x="557" y="-168" as="targetPoint" />
          </mxGeometry>
        </mxCell>
        <mxCell id="NfyWjWNFqi-aIi9zMegt-253" value="Concerne" style="edgeLabel;resizable=0;html=1;;align=center;verticalAlign=middle;" parent="NfyWjWNFqi-aIi9zMegt-252" connectable="0" vertex="1">
          <mxGeometry relative="1" as="geometry" />
        </mxCell>
        <mxCell id="NfyWjWNFqi-aIi9zMegt-254" value="1" style="edgeLabel;resizable=0;html=1;;align=left;verticalAlign=bottom;" parent="NfyWjWNFqi-aIi9zMegt-252" connectable="0" vertex="1">
          <mxGeometry x="-1" relative="1" as="geometry">
            <mxPoint x="1" y="38" as="offset" />
          </mxGeometry>
        </mxCell>
        <mxCell id="NfyWjWNFqi-aIi9zMegt-255" value="0.n" style="edgeLabel;resizable=0;html=1;;align=right;verticalAlign=bottom;" parent="NfyWjWNFqi-aIi9zMegt-252" connectable="0" vertex="1">
          <mxGeometry x="1" relative="1" as="geometry">
            <mxPoint x="15" y="-10" as="offset" />
          </mxGeometry>
        </mxCell>
      </root>
    </mxGraphModel>
  </diagram>
</mxfile>
